<svg xmlns="http://www.w3.org/2000/svg" viewBox="0 0 1000 1000" width="1000" height="1000" role="img"><defs><linearGradient id="f" x1="0" y1="0" x2="0.4" y2="1"><stop offset="0" stop-color="#07302B"/><stop offset="1" stop-color="#14524A"/></linearGradient><pattern id="m" width="92" height="92" patternUnits="userSpaceOnUse"><polygon points="14.1,-34.0 34.0,-14.1 34.0,14.1 14.1,34.0 -14.1,34.0 -34.0,14.1 -34.0,-14.1 -14.1,-34.0" fill="none" stroke="#D4AF37" stroke-width="2.0" stroke-opacity="0.4"/><polygon points="0.0,-20.2 20.2,-0.0 0.0,20.2 -20.2,0.0" fill="none" stroke="#D4AF37" stroke-width="2.0" stroke-opacity="0.27999999999999997"/><polygon points="60.1,12.0 80.0,31.9 80.0,60.1 60.1,80.0 31.9,80.0 12.0,60.1 12.0,31.9 31.9,12.0" fill="none" stroke="#D4AF37" stroke-width="2.0" stroke-opacity="0.4"/><polygon points="46.0,25.8 66.2,46.0 46.0,66.2 25.8,46.0" fill="none" stroke="#D4AF37" stroke-width="2.0" stroke-opacity="0.27999999999999997"/></pattern></defs><rect width="1000" height="1000" fill="url(#f)"/><rect width="1000" height="1000" fill="url(#m)"/><g opacity=".92"><path d="M330.0 746.5 L330.0 474.5 A170.0 170.0 0 0 1 670.0 474.5 L670.0 746.5" fill="none" stroke="#D4AF37" stroke-width="17.0" stroke-linecap="round"/><polygon points="500.0,343.6 508.2,374.8 536.1,358.5 519.8,386.4 551.0,394.6 519.8,402.8 536.1,430.7 508.2,414.4 500.0,445.6 491.8,414.4 463.9,430.7 480.2,402.8 449.0,394.6 480.2,386.4 463.9,358.5 491.8,374.8" fill="#D4AF37"/></g></svg>